<?xml version="1.0" encoding="utf-8"?>
<!-- Generator: Adobe Illustrator 17.0.0, SVG Export Plug-In . SVG Version: 6.00 Build 0)  -->
<!DOCTYPE svg PUBLIC "-//W3C//DTD SVG 1.1//EN" "http://www.w3.org/Graphics/SVG/1.1/DTD/svg11.dtd">
<svg version="1.1" xmlns="http://www.w3.org/2000/svg" xmlns:xlink="http://www.w3.org/1999/xlink" x="0px" y="0px" width="128px"
	 height="128px" viewBox="0 0 128 128" enable-background="new 0 0 128 128" xml:space="preserve">
<g id="Layer_17">
</g>
<g id="White_icons">
</g>
<g id="Occupied">
</g>
<g id="Inactive_icons">
	<g id="Light_icon">
		<g>
			<polygon fill="#FFCC00" points="51.433,52.898 54.531,91.861 73.532,91.861 76.669,52.899 			"/>
			<rect x="48.031" y="93.861" fill="#FFCC00" width="32" height="3"/>
			<path fill="#FFCC00" d="M48.031,98.861v0.715c0,7.18,5.571,13.285,12.748,13.285h6.505c7.177,0,12.747-6.105,12.747-13.285
				v-0.715H48.031z"/>
			<path fill="#FFCC00" d="M64.031,15.139c-17.945,0-32.5,14.545-32.5,32.494c0,9.486,6.599,17.6,10.004,24.94
				c2.099,4.534,4.343,8.287,6.298,19.287h4.489l-3.123-38.742c-0.05-0.628,0.161-1.168,0.581-1.623s1.022-0.635,1.653-0.635h25.195
				c0.631,0,1.233,0.222,1.653,0.677s0.632,0.972,0.581,1.6l-3.123,38.723h4.488c1.955-11,4.199-14.753,6.298-19.287
				c3.405-7.341,9.943-15.496,9.943-24.983C96.469,29.641,81.975,15.139,64.031,15.139z"/>
		</g>
	</g>
	<g id="Temperature_icon">
	</g>
	<g id="Sound_icon">
	</g>
	<g id="Humidity_icon">
	</g>
	<g id="CO2_Icon">
	</g>
</g>
<g id="Active_icons">
	<g id="Light_icon_copy">
	</g>
	<g id="Temperature_icon_copy">
	</g>
	<g id="Sound_icon_copy">
	</g>
	<g id="Humidity_icon_copy">
	</g>
	<g id="CO2_Icon_copy">
	</g>
</g>
<g id="Arrow">
</g>
<g id="More">
</g>
</svg>
