<?xml version="1.0" encoding="utf-8"?>
<!-- Generator: Adobe Illustrator 17.0.0, SVG Export Plug-In . SVG Version: 6.00 Build 0)  -->
<!DOCTYPE svg PUBLIC "-//W3C//DTD SVG 1.1//EN" "http://www.w3.org/Graphics/SVG/1.1/DTD/svg11.dtd">
<svg version="1.1" xmlns="http://www.w3.org/2000/svg" xmlns:xlink="http://www.w3.org/1999/xlink" x="0px" y="0px" width="128px"
	 height="128px" viewBox="0 0 128 128" enable-background="new 0 0 128 128" xml:space="preserve">
<g id="Layer_17">
</g>
<g id="White_icons">
</g>
<g id="Occupied">
</g>
<g id="Inactive_icons">
	<g id="Light_icon">
	</g>
	<g id="Temperature_icon">
	</g>
	<g id="Sound_icon">
	</g>
	<g id="Humidity_icon">
	</g>
	<g id="CO2_Icon">
	</g>
</g>
<g id="Active_icons">
	<g id="Light_icon_copy">
	</g>
	<g id="Temperature_icon_copy">
		<g>
			<path fill="#FFFFFF" d="M77.745,72.115V20.321C77.745,12.73,71.6,6.576,64,6.576S50.256,12.73,50.256,20.321v51.794
				C42.04,76.87,36.5,85.751,36.5,95.929c0,15.188,12.318,27.495,27.5,27.495c15.182,0,27.5-12.306,27.5-27.495
				C91.5,85.751,85.961,76.87,77.745,72.115z"/>
			<path fill="#A0A0A0" d="M64,124.523c-15.771,0-28.6-12.827-28.6-28.595c0-9.956,5.255-19.262,13.756-24.439V20.32
				c0-8.186,6.658-14.844,14.844-14.844s14.845,6.658,14.845,14.844v51.169C87.346,76.667,92.6,85.972,92.6,95.929
				C92.6,111.696,79.771,124.523,64,124.523z M64,7.676c-6.972,0-12.645,5.673-12.645,12.645v52.43l-0.549,0.317
				C42.66,77.782,37.6,86.542,37.6,95.929c0,14.555,11.844,26.396,26.4,26.396s26.4-11.841,26.4-26.396
				c0-9.387-5.061-18.147-13.206-22.861l-0.549-0.317V20.32C76.646,13.349,70.973,7.676,64,7.676z"/>
		</g>
		<rect x="50.615" y="27.637" fill="#A0A0A0" width="13.385" height="1.1"/>
		<rect x="50.615" y="41.02" fill="#A0A0A0" width="13.385" height="1.1"/>
		<rect x="50.615" y="34.33" fill="#A0A0A0" width="6.689" height="1.1"/>
		<path fill="#A0A0A0" d="M63.958,116.841c-11.571,0-20.985-9.37-20.985-20.888c0-8.803,5.102-16.384,13.027-19.415V55h16v21.497
			c7.963,3.016,13.088,10.613,13.088,19.456C85.088,107.471,75.609,116.841,63.958,116.841z M57,56v21.236l-0.329,0.119
			c-7.714,2.8-12.698,10.1-12.698,18.598c0,10.966,8.966,19.888,19.985,19.888c11.1,0,20.13-8.922,20.13-19.888
			c0-8.537-5.008-15.853-12.757-18.637L71,77.197V56H57z"/>
	</g>
	<g id="Sound_icon_copy">
	</g>
	<g id="Humidity_icon_copy">
	</g>
	<g id="CO2_Icon_copy">
	</g>
</g>
<g id="Arrow">
</g>
<g id="More">
</g>
</svg>
