<?xml version="1.0" encoding="utf-8"?>
<!-- Generator: Adobe Illustrator 17.0.0, SVG Export Plug-In . SVG Version: 6.00 Build 0)  -->
<!DOCTYPE svg PUBLIC "-//W3C//DTD SVG 1.1//EN" "http://www.w3.org/Graphics/SVG/1.1/DTD/svg11.dtd">
<svg version="1.1" xmlns="http://www.w3.org/2000/svg" xmlns:xlink="http://www.w3.org/1999/xlink" x="0px" y="0px" width="128px"
	 height="128px" viewBox="0 0 128 128" enable-background="new 0 0 128 128" xml:space="preserve">
<g id="Layer_17">
</g>
<g id="White_icons">
</g>
<g id="Occupied">
</g>
<g id="Inactive_icons">
	<g id="Light_icon">
	</g>
	<g id="Temperature_icon">
	</g>
	<g id="Sound_icon">
	</g>
	<g id="Humidity_icon">
	</g>
	<g id="CO2_Icon">
	</g>
</g>
<g id="Active_icons">
	<g id="Light_icon_copy">
	</g>
	<g id="Temperature_icon_copy">
	</g>
	<g id="Sound_icon_copy">
		<g>
			<g>
				<g>
					<path fill="#FFFFFF" d="M69.4,23.311c0-2.437-1.97-4.412-4.4-4.412c-1.253,0-2.383,0.526-3.184,1.369L43.965,38.59
						c-0.793,0.744-1.893,1.305-3.049,1.305L30.91,39.893c-2.427,0.001-4.394,1.972-4.398,4.406l-0.007,31.996l0.003,0.003
						c0.004,2.431,1.968,4.298,4.392,4.302l9.948-0.098c1.174,0,2.244,0.554,3.045,1.293c0.023,0.021,18.07,17.515,18.07,17.515
						c0.789,0.755,1.854,1.104,3.031,1.104c2.422,0,4.384-2.312,4.398-4.512l0.014-36.351L69.4,23.311z"/>
					<path fill="#A0A0A0" d="M64.994,101.514c-1.516,0-2.826-0.487-3.791-1.409c-0.006-0.005-17.892-17.342-18.072-17.516
						c-0.39-0.359-1.227-0.987-2.283-0.987l-9.937,0.098c-2.923-0.004-5.241-2.132-5.482-4.925l-0.021-0.021l-0.003-0.458
						l0.007-31.996c0.005-3.036,2.471-5.505,5.498-5.505l10.006,0.001c0.778,0,1.615-0.367,2.296-1.007l17.815-18.289
						c1.04-1.094,2.454-1.7,3.973-1.7c3.032,0,5.499,2.473,5.499,5.512l0.006,36.24l-0.014,36.352
						C70.476,98.555,68.121,101.514,64.994,101.514z M40.837,79.402c1.349,0,2.695,0.562,3.802,1.584
						c0.012,0.012,0.032,0.029,18.09,17.533c0.687,0.656,1.611,0.795,2.266,0.795c1.845,0,3.288-1.838,3.298-3.419l0.014-36.345
						L68.3,23.311c0-1.826-1.48-3.312-3.3-3.312c-0.91,0-1.758,0.365-2.388,1.026L44.753,39.357
						c-1.119,1.053-2.505,1.637-3.837,1.637L30.91,40.993c-1.815,0-3.296,1.484-3.299,3.308l-0.007,31.639l0.003,0.356
						c0.003,1.794,1.45,3.201,3.295,3.204L40.837,79.402z"/>
				</g>
			</g>
			<g>
				<defs>
					<polyline id="SVGID_5_" points="125.506,120.159 70.981,65.629 70.605,60.505 71.002,55.354 116.306,10.045 					"/>
				</defs>
				<clipPath id="SVGID_2_">
					<use xlink:href="#SVGID_5_"  overflow="visible"/>
				</clipPath>
				<g clip-path="url(#SVGID_2_)">
					<path fill="#A0A0A0" d="M72.638,94.249c-18.611,0-33.752-15.137-33.752-33.743c0-18.608,15.141-33.747,33.752-33.747
						c18.608,0,33.746,15.139,33.746,33.747C106.383,79.112,91.245,94.249,72.638,94.249z M72.638,27.968
						c-17.944,0-32.542,14.597-32.542,32.537c0,17.939,14.599,32.534,32.542,32.534c17.941,0,32.536-14.594,32.536-32.534
						C105.174,42.565,90.578,27.968,72.638,27.968z"/>
					<path fill="#A0A0A0" d="M72.638,82.197c-11.968,0-21.704-9.73-21.704-21.692c0-11.964,9.736-21.697,21.704-21.697
						c11.961,0,21.692,9.734,21.692,21.697C94.329,72.467,84.599,82.197,72.638,82.197z M72.638,40.018
						c-11.301,0-20.494,9.191-20.494,20.488c0,11.293,9.193,20.482,20.494,20.482c11.293,0,20.482-9.189,20.482-20.482
						C93.12,49.209,83.931,40.018,72.638,40.018z"/>
					<path fill="#A0A0A0" d="M72.638,70.149c-5.321,0-9.649-4.326-9.649-9.643s4.328-9.643,9.649-9.643
						c5.316,0,9.642,4.326,9.642,9.643S77.954,70.149,72.638,70.149z M72.638,52.072c-4.654,0-8.439,3.783-8.439,8.434
						s3.786,8.434,8.439,8.434c4.649,0,8.433-3.783,8.433-8.434S77.287,52.072,72.638,52.072z"/>
				</g>
			</g>
			<path fill="#A0A0A0" d="M44.105,76.469c-0.334,0-0.605-0.271-0.605-0.605v-30.8c0-0.334,0.271-0.605,0.605-0.605
				s0.605,0.271,0.605,0.605v30.8C44.71,76.199,44.439,76.469,44.105,76.469z"/>
		</g>
	</g>
	<g id="Humidity_icon_copy">
	</g>
	<g id="CO2_Icon_copy">
	</g>
</g>
<g id="Arrow">
</g>
<g id="More">
</g>
</svg>
