<?xml version="1.0" encoding="utf-8"?>
<!-- Generator: Adobe Illustrator 17.0.0, SVG Export Plug-In . SVG Version: 6.00 Build 0)  -->
<!DOCTYPE svg PUBLIC "-//W3C//DTD SVG 1.1//EN" "http://www.w3.org/Graphics/SVG/1.1/DTD/svg11.dtd">
<svg version="1.1" xmlns="http://www.w3.org/2000/svg" xmlns:xlink="http://www.w3.org/1999/xlink" x="0px" y="0px" width="128px"
	 height="128px" viewBox="0 0 128 128" enable-background="new 0 0 128 128" xml:space="preserve">
<g id="Layer_17">
</g>
<g id="White_icons">
</g>
<g id="Occupied">
</g>
<g id="Inactive_icons">
	<g id="Light_icon">
	</g>
	<g id="Temperature_icon">
	</g>
	<g id="Sound_icon">
	</g>
	<g id="Humidity_icon">
	</g>
	<g id="CO2_Icon">
	</g>
</g>
<g id="Active_icons">
	<g id="Light_icon_copy">
	</g>
	<g id="Temperature_icon_copy">
	</g>
	<g id="Sound_icon_copy">
	</g>
	<g id="Humidity_icon_copy">
	</g>
	<g id="CO2_Icon_copy">
		<g>
			<path fill="#FFFFFF" d="M92.451,42.239c-1.553,0-3.078,0.134-4.555,0.395c-6.268-7.213-15.501-11.768-25.792-11.768
				c-6.36,0-12.316,1.733-17.403,4.762c-1.665-0.629-3.469-0.975-5.355-0.975c-8.374,0-15.168,6.795-15.168,15.173
				c0,0.432,0.01,0.857,0.048,1.278C15.365,54.211,9,62.657,9,72.583c0,12.571,10.194,22.763,22.752,22.763
				c3.797,0,7.364-0.93,10.512-2.567c5.58,4.004,12.439,6.356,19.841,6.356c7.251,0,13.96-2.258,19.481-6.107
				c3.319,1.491,6.998,2.318,10.866,2.318c14.658,0,26.549-11.892,26.549-26.555C119,54.128,107.109,42.239,92.451,42.239z"/>
			<path fill="#A0A0A0" d="M62.104,100.234c-7.191,0-14.069-2.134-19.935-6.178c-3.263,1.586-6.764,2.389-10.418,2.389
				C18.6,96.445,7.9,85.741,7.9,72.583c0-9.843,6.068-18.673,15.186-22.229c-0.005-0.175-0.006-0.351-0.006-0.528
				c0-8.973,7.298-16.272,16.268-16.272c1.793,0,3.554,0.291,5.242,0.865c5.294-3.045,11.338-4.652,17.515-4.652
				c10.005,0,19.523,4.251,26.213,11.685c1.354-0.207,2.742-0.311,4.134-0.311c15.246,0,27.648,12.404,27.648,27.651
				c0,15.249-12.402,27.654-27.648,27.654c-3.732,0-7.344-0.728-10.746-2.165C75.898,98.178,69.136,100.234,62.104,100.234z
				 M42.355,91.49l0.55,0.395c5.607,4.023,12.246,6.15,19.199,6.15c6.786,0,13.306-2.044,18.853-5.909l0.511-0.356l0.568,0.255
				c3.283,1.474,6.787,2.222,10.415,2.222c14.032,0,25.449-11.419,25.449-25.455c0-14.034-11.417-25.452-25.449-25.452
				c-1.475,0-2.943,0.128-4.363,0.378l-0.613,0.108l-0.408-0.47c-6.29-7.238-15.389-11.391-24.962-11.391
				c-5.957,0-11.779,1.594-16.84,4.607l-0.455,0.271l-0.495-0.187c-1.591-0.6-3.262-0.904-4.967-0.904
				c-7.757,0-14.068,6.313-14.068,14.073c0,0.399,0.009,0.791,0.044,1.18l0.077,0.854l-0.809,0.283
				C15.924,55.181,10.1,63.396,10.1,72.583c0,11.945,9.714,21.663,21.652,21.663c3.522,0,6.889-0.822,10.004-2.443L42.355,91.49z"/>
		</g>
		<path fill="#A0A0A0" d="M62.104,92.098v-1.1c4.672,0,9.255-1.253,13.255-3.624c1.972-1.171,3.598-2.428,5.116-3.953l0.342-0.345
			l0.385,0.297c3.244,2.51,7.134,3.836,11.249,3.836c10.154,0,18.415-8.263,18.415-18.418h1.1c0,10.762-8.754,19.518-19.515,19.518
			c-4.199,0-8.178-1.303-11.538-3.774c-1.487,1.442-3.085,2.653-4.992,3.786C71.751,90.792,66.974,92.098,62.104,92.098z"/>
	</g>
</g>
<g id="Arrow">
</g>
<g id="More">
</g>
</svg>
