<?xml version="1.0" encoding="utf-8"?>
<!-- Generator: Adobe Illustrator 17.0.0, SVG Export Plug-In . SVG Version: 6.00 Build 0)  -->
<!DOCTYPE svg PUBLIC "-//W3C//DTD SVG 1.1//EN" "http://www.w3.org/Graphics/SVG/1.1/DTD/svg11.dtd">
<svg version="1.1" xmlns="http://www.w3.org/2000/svg" xmlns:xlink="http://www.w3.org/1999/xlink" x="0px" y="0px" width="128px"
	 height="128px" viewBox="0 0 128 128" enable-background="new 0 0 128 128" xml:space="preserve">
<g id="Layer_17">
</g>
<g id="White_icons">
</g>
<g id="Occupied">
</g>
<g id="Inactive_icons">
	<g id="Light_icon">
	</g>
	<g id="Temperature_icon">
	</g>
	<g id="Sound_icon">
	</g>
	<g id="Humidity_icon">
		<g>
			<g>
				<path fill="#FFCC00" d="M90.362,45.356L64.012,19L37.65,45.356c-14.573,14.568-14.573,38.17,0,52.724
					c14.546,14.56,38.161,14.56,52.713,0C104.92,83.526,104.92,59.924,90.362,45.356z M59.144,66.853
					c-1.975,1.969-4.592,3.051-7.373,3.051c-2.782,0-5.399-1.082-7.371-3.048c-1.975-1.971-3.061-4.59-3.06-7.376
					c0.002-2.782,1.088-5.396,3.06-7.36l7.374-7.381l7.369,7.383C63.191,56.179,63.191,62.787,59.144,66.853z"/>
			</g>
			<path fill="#FFCC00" d="M51.773,47.852l-5.819,5.824c-1.557,1.55-2.413,3.611-2.414,5.804c-0.001,2.197,0.855,4.263,2.413,5.817
				c1.556,1.551,3.622,2.406,5.817,2.406c2.194,0,4.261-0.855,5.817-2.407c3.191-3.205,3.192-8.419-0.002-11.621L51.773,47.852z"/>
		</g>
	</g>
	<g id="CO2_Icon">
	</g>
</g>
<g id="Active_icons">
	<g id="Light_icon_copy">
	</g>
	<g id="Temperature_icon_copy">
	</g>
	<g id="Sound_icon_copy">
	</g>
	<g id="Humidity_icon_copy">
	</g>
	<g id="CO2_Icon_copy">
	</g>
</g>
<g id="Arrow">
</g>
<g id="More">
</g>
</svg>
