<?xml version="1.0" encoding="utf-8"?>
<!-- Generator: Adobe Illustrator 17.0.0, SVG Export Plug-In . SVG Version: 6.00 Build 0)  -->
<!DOCTYPE svg PUBLIC "-//W3C//DTD SVG 1.1//EN" "http://www.w3.org/Graphics/SVG/1.1/DTD/svg11.dtd">
<svg version="1.1" xmlns="http://www.w3.org/2000/svg" xmlns:xlink="http://www.w3.org/1999/xlink" x="0px" y="0px" width="128px"
	 height="128px" viewBox="0 0 128 128" enable-background="new 0 0 128 128" xml:space="preserve">
<g id="Layer_17">
</g>
<g id="White_icons">
</g>
<g id="Occupied">
</g>
<g id="Inactive_icons">
	<g id="Light_icon">
	</g>
	<g id="Temperature_icon">
	</g>
	<g id="Sound_icon">
	</g>
	<g id="Humidity_icon">
	</g>
	<g id="CO2_Icon">
		<path fill="#FFCC00" d="M92.451,41.239c-1.553,0-3.078,0.134-4.555,0.395c-6.268-7.213-15.501-11.768-25.792-11.768
			c-6.36,0-12.316,1.732-17.403,4.762c-1.665-0.629-3.469-0.975-5.355-0.975c-8.374,0-15.168,6.795-15.168,15.173
			c0,0.432,0.01,0.857,0.048,1.278C15.365,53.211,9,61.657,9,71.583c0,12.571,10.194,22.763,22.752,22.763
			c3.797,0,7.364-0.93,10.512-2.567c5.58,4.004,12.439,6.356,19.841,6.356c7.251,0,13.96-2.258,19.481-6.107
			c3.319,1.49,6.998,2.318,10.866,2.318c14.658,0,26.549-11.892,26.549-26.555C119,53.128,107.108,41.239,92.451,41.239z
			 M92.451,87.858c-4.162,0-8.114-1.245-11.488-3.612c-1.425,1.335-2.958,2.476-4.763,3.547c-4.254,2.522-9.128,3.854-14.096,3.854
			c-0.607,0-1.1-0.492-1.1-1.1s0.492-1.1,1.1-1.1c4.573,0,9.06-1.227,12.974-3.547c1.931-1.146,3.522-2.376,5.008-3.869l0.685-0.688
			l0.768,0.594c3.147,2.434,6.921,3.721,10.913,3.721c9.851,0,17.865-8.016,17.865-17.868c0-0.607,0.492-1.1,1.1-1.1
			s1.1,0.492,1.1,1.1C112.516,78.856,103.515,87.858,92.451,87.858z"/>
	</g>
</g>
<g id="Active_icons">
	<g id="Light_icon_copy">
	</g>
	<g id="Temperature_icon_copy">
	</g>
	<g id="Sound_icon_copy">
	</g>
	<g id="Humidity_icon_copy">
	</g>
	<g id="CO2_Icon_copy">
	</g>
</g>
<g id="Arrow">
</g>
<g id="More">
</g>
</svg>
