<?xml version="1.0" encoding="utf-8"?>
<!-- Generator: Adobe Illustrator 17.0.0, SVG Export Plug-In . SVG Version: 6.00 Build 0)  -->
<!DOCTYPE svg PUBLIC "-//W3C//DTD SVG 1.1//EN" "http://www.w3.org/Graphics/SVG/1.1/DTD/svg11.dtd">
<svg version="1.1" xmlns="http://www.w3.org/2000/svg" xmlns:xlink="http://www.w3.org/1999/xlink" x="0px" y="0px" width="128px"
	 height="128px" viewBox="0 0 128 128" enable-background="new 0 0 128 128" xml:space="preserve">
<g id="Layer_17">
</g>
<g id="White_icons">
</g>
<g id="Occupied">
</g>
<g id="Inactive_icons">
	<g id="Light_icon">
	</g>
	<g id="Temperature_icon">
	</g>
	<g id="Sound_icon">
	</g>
	<g id="Humidity_icon">
	</g>
	<g id="CO2_Icon">
	</g>
</g>
<g id="Active_icons">
	<g id="Light_icon_copy">
	</g>
	<g id="Temperature_icon_copy">
	</g>
	<g id="Sound_icon_copy">
	</g>
	<g id="Humidity_icon_copy">
		<g>
			<path fill="#FFFFFF" d="M37.65,46.356c-14.573,14.568-14.573,38.17,0,52.724c14.546,14.56,38.161,14.56,52.713,0
				c14.557-14.554,14.557-38.156,0-52.724L64.012,20L37.65,46.356z"/>
			<path fill="#A0A0A0" d="M64.005,111.1c-10.254,0-19.89-3.992-27.133-11.242C29.617,92.611,25.62,82.976,25.62,72.724
				c0-10.251,3.996-19.892,11.253-27.146l27.14-27.134l27.129,27.135c14.96,14.972,14.96,39.321-0.001,54.279
				C83.896,107.107,74.259,111.1,64.005,111.1z M64.013,21.556L38.428,47.135c-6.84,6.838-10.607,15.926-10.607,25.589
				s3.768,18.747,10.607,25.578c6.828,6.835,15.911,10.598,25.577,10.598s18.75-3.763,25.58-10.597
				c14.104-14.101,14.104-37.055,0-51.169L64.013,21.556z"/>
		</g>
		<path fill="#A0A0A0" d="M51.771,70.354c-2.635,0-5.115-1.025-6.983-2.888c-1.869-1.867-2.898-4.348-2.896-6.986
			c0.001-2.636,1.03-5.11,2.897-6.971l6.985-6.991l6.981,6.992c3.835,3.844,3.835,10.104,0,13.954
			C56.886,69.328,54.405,70.354,51.771,70.354z M51.773,48.074l-6.209,6.213c-1.659,1.653-2.573,3.853-2.574,6.192
			c-0.001,2.345,0.913,4.549,2.574,6.207c1.66,1.655,3.864,2.567,6.206,2.567s4.546-0.912,6.206-2.567
			c3.407-3.421,3.407-8.984-0.001-12.399L51.773,48.074z"/>
	</g>
	<g id="CO2_Icon_copy">
	</g>
</g>
<g id="Arrow">
</g>
<g id="More">
</g>
</svg>
