<?xml version="1.0" encoding="utf-8"?>
<!-- Generator: Adobe Illustrator 17.0.0, SVG Export Plug-In . SVG Version: 6.00 Build 0)  -->
<!DOCTYPE svg PUBLIC "-//W3C//DTD SVG 1.1//EN" "http://www.w3.org/Graphics/SVG/1.1/DTD/svg11.dtd">
<svg version="1.1" xmlns="http://www.w3.org/2000/svg" xmlns:xlink="http://www.w3.org/1999/xlink" x="0px" y="0px" width="128px"
	 height="128px" viewBox="0 0 128 128" enable-background="new 0 0 128 128" xml:space="preserve">
<g id="Layer_17">
</g>
<g id="White_icons">
</g>
<g id="Occupied">
</g>
<g id="Inactive_icons">
	<g id="Light_icon">
	</g>
	<g id="Temperature_icon">
		<g>
			<path fill="#FFCC00" d="M70.628,77.787L70,77.549V59H56v18.587l-0.13,0.239c-7.444,2.712-11.806,9.658-11.806,18.127
				c0,10.691,8.893,19.388,19.662,19.388c10.677,0,19.43-8.697,19.43-19.388C83.156,87.67,78.26,80.54,70.628,77.787z"/>
			<path fill="#FFCC00" d="M78,72.115V20.32c0-7.591-6.431-13.744-14-13.744c-7.569,0-14,6.153-14,13.744V29h14v2H50v4h6v2h-6v4h14
				v2H50v29.115c-8,4.755-13.532,13.636-13.532,23.814c0,15.188,12.352,27.495,27.473,27.495s27.574-12.306,27.574-27.495
				C91.515,85.751,86,76.87,78,72.115z M63.857,117.341c-11.867,0-22.052-9.595-22.052-21.388C41.805,86.87,48,79.365,54,76.197V57
				h18v19.154c8,3.207,13.218,10.901,13.218,19.799C85.218,107.746,75.634,117.341,63.857,117.341z"/>
		</g>
	</g>
	<g id="Sound_icon">
	</g>
	<g id="Humidity_icon">
	</g>
	<g id="CO2_Icon">
	</g>
</g>
<g id="Active_icons">
	<g id="Light_icon_copy">
	</g>
	<g id="Temperature_icon_copy">
	</g>
	<g id="Sound_icon_copy">
	</g>
	<g id="Humidity_icon_copy">
	</g>
	<g id="CO2_Icon_copy">
	</g>
</g>
<g id="Arrow">
</g>
<g id="More">
</g>
</svg>
