<?xml version="1.0" encoding="utf-8"?>
<!-- Generator: Adobe Illustrator 17.0.0, SVG Export Plug-In . SVG Version: 6.00 Build 0)  -->
<!DOCTYPE svg PUBLIC "-//W3C//DTD SVG 1.1//EN" "http://www.w3.org/Graphics/SVG/1.1/DTD/svg11.dtd">
<svg version="1.1" xmlns="http://www.w3.org/2000/svg" xmlns:xlink="http://www.w3.org/1999/xlink" x="0px" y="0px" width="128px"
	 height="128px" viewBox="0 0 128 128" enable-background="new 0 0 128 128" xml:space="preserve">
<g id="Layer_17">
</g>
<g id="White_icons">
</g>
<g id="Occupied">
</g>
<g id="Inactive_icons">
	<g id="Light_icon">
	</g>
	<g id="Temperature_icon">
	</g>
	<g id="Sound_icon">
	</g>
	<g id="Humidity_icon">
	</g>
	<g id="CO2_Icon">
	</g>
</g>
<g id="Active_icons">
	<g id="Light_icon_copy">
		<g>
			<path id="Outline_4_" fill="#FFFFFF" d="M80.245,92.271c1.7-11.73,4.203-15.785,6.373-20.472
				c3.405-7.341,9.882-15.539,9.882-25.026c0-17.95-14.555-32.494-32.5-32.494S31.5,28.823,31.5,46.773
				c0,9.486,6.477,17.685,9.882,25.026c2.17,4.687,4.679,8.743,6.373,20.472"/>
			<path fill="#A0A0A0" d="M81.334,92.429l-2.178-0.316c1.514-10.439,3.711-15.018,5.648-19.058
				c0.275-0.573,0.548-1.141,0.815-1.718c0.92-1.982,2.033-3.981,3.213-6.097c3.229-5.792,6.567-11.78,6.567-18.468
				c0-17.311-14.086-31.395-31.4-31.395s-31.4,14.084-31.4,31.395c0,6.688,3.338,12.676,6.567,18.467
				c1.18,2.116,2.294,4.114,3.213,6.097c0.269,0.581,0.542,1.151,0.819,1.728c1.939,4.039,4.137,8.617,5.645,19.05l-2.178,0.314
				c-1.459-10.099-3.488-14.325-5.45-18.412c-0.282-0.586-0.56-1.165-0.833-1.755c-0.885-1.907-1.979-3.871-3.139-5.95
				C34.037,60.555,30.4,54.031,30.4,46.772c0-18.523,15.073-33.594,33.6-33.594c18.527,0,33.599,15.07,33.599,33.594
				c0,7.259-3.637,13.783-6.845,19.539c-1.159,2.079-2.254,4.042-3.139,5.95c-0.271,0.586-0.548,1.162-0.828,1.745
				C84.827,78.095,82.799,82.321,81.334,92.429z"/>
		</g>
		<g>
			<path fill="#FFFFFF" d="M80.245,92.271v6.445c0,7.18-5.815,13.006-12.992,13.006h-6.505c-7.177,0-12.992-5.827-12.992-13.006
				v-6.445"/>
			<path fill="#A0A0A0" d="M67.253,112.821h-6.505c-7.771,0-14.092-6.328-14.092-14.106v-6.444h2.2v6.444
				c0,6.565,5.334,11.907,11.892,11.907h6.505c6.558,0,11.893-5.342,11.893-11.907v-6.444h2.199v6.444
				C81.345,106.493,75.023,112.821,67.253,112.821z"/>
		</g>
		<rect x="47.756" y="91.721" fill="#A0A0A0" width="32.488" height="1.1"/>
		<rect x="47.756" y="96.726" fill="#A0A0A0" width="32.488" height="1.1"/>
		<path fill="#A0A0A0" d="M75.064,92.314l-1.096-0.088l3.219-40.016c0.014-0.173-0.039-0.334-0.149-0.453
			c-0.11-0.12-0.266-0.186-0.439-0.186H51.403c-0.174,0-0.33,0.065-0.44,0.186c-0.11,0.119-0.164,0.28-0.149,0.453l3.219,40.016
			l-1.097,0.088l-3.219-40.016c-0.039-0.482,0.117-0.94,0.438-1.287c0.321-0.348,0.764-0.539,1.248-0.539h25.196
			c0.484,0,0.927,0.191,1.248,0.539c0.32,0.348,0.476,0.805,0.437,1.287L75.064,92.314z"/>
	</g>
	<g id="Temperature_icon_copy">
	</g>
	<g id="Sound_icon_copy">
	</g>
	<g id="Humidity_icon_copy">
	</g>
	<g id="CO2_Icon_copy">
	</g>
</g>
<g id="Arrow">
</g>
<g id="More">
</g>
</svg>
