<?xml version="1.0" encoding="utf-8"?>
<!-- Generator: Adobe Illustrator 17.0.0, SVG Export Plug-In . SVG Version: 6.00 Build 0)  -->
<!DOCTYPE svg PUBLIC "-//W3C//DTD SVG 1.1//EN" "http://www.w3.org/Graphics/SVG/1.1/DTD/svg11.dtd">
<svg version="1.1" xmlns="http://www.w3.org/2000/svg" xmlns:xlink="http://www.w3.org/1999/xlink" x="0px" y="0px" width="128px"
	 height="128px" viewBox="0 0 128 128" enable-background="new 0 0 128 128" xml:space="preserve">
<g id="Layer_17">
</g>
<g id="White_icons">
</g>
<g id="Occupied">
	<g id="B_2_">
		<path fill="#FFFFFF" d="M64,64.016c13.542,0,24.56,11.019,24.56,24.563v7.45c-7.625,3.779-16.153,5.771-24.75,5.771
			c-8.446,0-16.843-1.93-24.37-5.591v-7.63C39.44,75.035,50.458,64.016,64,64.016 M64,61.816c-14.791,0-26.76,11.984-26.76,26.763
			v8.987C45.192,101.679,54.239,104,63.81,104c9.731,0,18.909-2.392,26.95-6.624v-8.797C90.76,73.8,78.791,61.816,64,61.816
			L64,61.816z"/>
	</g>
	<path fill="#FFFFFF" d="M61.185,97.68c-0.304,0-0.55-0.246-0.55-0.55s0.246-0.55,0.55-0.55c2.975,0,5.951-0.271,8.848-0.806
		c4.655-0.858,9.149-2.396,13.363-4.57v-7.1c0-0.304,0.246-0.55,0.55-0.55s0.55,0.246,0.55,0.55v7.767l-0.294,0.154
		c-4.397,2.307-9.097,3.932-13.97,4.831C67.27,97.402,64.226,97.68,61.185,97.68z"/>
	<g id="H_2_">
		<path fill="#FFFFFF" d="M63.81,26.2c7.638,0,13.852,6.214,13.852,13.853c0,7.635-6.214,13.846-13.852,13.846
			c-7.635,0-13.847-6.212-13.847-13.846C49.963,32.414,56.175,26.2,63.81,26.2 M63.81,24c-8.857,0-16.047,7.19-16.047,16.053
			c0,8.856,7.19,16.046,16.047,16.046c8.862,0,16.052-7.19,16.052-16.046C79.862,31.19,72.672,24,63.81,24L63.81,24z"/>
	</g>
</g>
<g id="Inactive_icons">
	<g id="Light_icon">
	</g>
	<g id="Temperature_icon">
	</g>
	<g id="Sound_icon">
	</g>
	<g id="Humidity_icon">
	</g>
	<g id="CO2_Icon">
	</g>
</g>
<g id="Active_icons">
	<g id="Light_icon_copy">
	</g>
	<g id="Temperature_icon_copy">
	</g>
	<g id="Sound_icon_copy">
	</g>
	<g id="Humidity_icon_copy">
	</g>
	<g id="CO2_Icon_copy">
	</g>
</g>
<g id="Arrow">
</g>
<g id="More">
</g>
</svg>
