<?xml version="1.0" encoding="utf-8"?>
<!-- Generator: Adobe Illustrator 17.0.0, SVG Export Plug-In . SVG Version: 6.00 Build 0)  -->
<!DOCTYPE svg PUBLIC "-//W3C//DTD SVG 1.1//EN" "http://www.w3.org/Graphics/SVG/1.1/DTD/svg11.dtd">
<svg version="1.1" xmlns="http://www.w3.org/2000/svg" xmlns:xlink="http://www.w3.org/1999/xlink" x="0px" y="0px" width="64px"
	 height="64px" viewBox="0 0 64 64" enable-background="new 0 0 64 64" xml:space="preserve">
<g id="Layer_17">
</g>
<g id="White_icons">
	<g id="Co2_small">
		<path fill="#FFFFFF" d="M43.38,22.896c-0.621,0-1.231,0.054-1.822,0.158c-2.507-2.885-6.2-4.707-10.317-4.707
			c-2.544,0-4.926,0.693-6.961,1.905c-0.666-0.251-1.388-0.39-2.142-0.39c-3.35,0-6.067,2.718-6.067,6.069
			c0,0.173,0.004,0.343,0.019,0.511C12.546,27.684,10,31.063,10,35.033c0,5.029,4.078,9.105,9.101,9.105
			c1.519,0,2.946-0.372,4.205-1.027c2.232,1.602,4.976,2.543,7.936,2.543c2.9,0,5.584-0.903,7.792-2.443
			c1.328,0.596,2.799,0.927,4.346,0.927c5.863,0,10.62-4.757,10.62-10.622C54,27.651,49.243,22.896,43.38,22.896z M43.38,41.543
			c-1.665,0-3.246-0.498-4.595-1.445c-0.57,0.534-1.183,0.99-1.905,1.419c-1.702,1.009-3.651,1.542-5.638,1.542
			c-0.243,0-0.44-0.197-0.44-0.44s0.197-0.44,0.44-0.44c1.829,0,3.624-0.491,5.189-1.419c0.772-0.459,1.409-0.95,2.003-1.548
			l0.274-0.275l0.307,0.238c1.259,0.973,2.768,1.488,4.365,1.488c3.94,0,7.146-3.206,7.146-7.147c0-0.243,0.197-0.44,0.44-0.44
			c0.243,0,0.44,0.197,0.44,0.44C51.406,37.943,47.806,41.543,43.38,41.543z"/>
	</g>
</g>
<g id="Occupied">
</g>
<g id="Inactive_icons">
	<g id="Light_icon">
	</g>
	<g id="Temperature_icon">
	</g>
	<g id="Sound_icon">
	</g>
	<g id="Humidity_icon">
	</g>
	<g id="CO2_Icon">
	</g>
</g>
<g id="Active_icons">
	<g id="Light_icon_copy">
	</g>
	<g id="Temperature_icon_copy">
	</g>
	<g id="Sound_icon_copy">
	</g>
	<g id="Humidity_icon_copy">
	</g>
	<g id="CO2_Icon_copy">
	</g>
</g>
<g id="Arrow">
</g>
<g id="More">
</g>
</svg>
