<?xml version="1.0" encoding="utf-8"?>
<!-- Generator: Adobe Illustrator 17.0.0, SVG Export Plug-In . SVG Version: 6.00 Build 0)  -->
<!DOCTYPE svg PUBLIC "-//W3C//DTD SVG 1.1//EN" "http://www.w3.org/Graphics/SVG/1.1/DTD/svg11.dtd">
<svg version="1.1" xmlns="http://www.w3.org/2000/svg" xmlns:xlink="http://www.w3.org/1999/xlink" x="0px" y="0px" width="64px"
	 height="64px" viewBox="0 0 64 64" enable-background="new 0 0 64 64" xml:space="preserve">
<g id="Layer_17">
</g>
<g id="White_icons">
</g>
<g id="Occupied">
</g>
<g id="Inactive_icons">
	<g id="Light_icon">
	</g>
	<g id="Temperature_icon">
	</g>
	<g id="Sound_icon">
		<g>
			<defs>
				<polyline id="SVGID_3_" points="62.321,59.606 35.059,32.264 34.871,29.695 35.07,27.112 57.722,4.394 				"/>
			</defs>
			<clipPath id="SVGID_2_">
				<use xlink:href="#SVGID_3_"  overflow="visible"/>
			</clipPath>
			<g clip-path="url(#SVGID_2_)">
				<path fill="#FFFFFF" d="M35.887,46.918c-9.472,0-17.178-7.726-17.178-17.223c0-9.498,7.706-17.225,17.178-17.225
					c9.471,0,17.176,7.727,17.176,17.225C53.063,39.192,45.358,46.918,35.887,46.918z M35.887,13.684
					c-8.805,0-15.969,7.182-15.969,16.011c0,8.828,7.163,16.01,15.969,16.01c8.804,0,15.966-7.182,15.966-16.01
					C51.853,20.867,44.691,13.684,35.887,13.684z"/>
				<path fill="#FFFFFF" d="M35.887,40.875c-6.15,0-11.154-5.015-11.154-11.18c0-6.166,5.003-11.183,11.154-11.183
					c6.147,0,11.148,5.017,11.148,11.183C47.035,35.86,42.034,40.875,35.887,40.875z M35.887,19.726
					c-5.483,0-9.944,4.472-9.944,9.969c0,5.496,4.461,9.967,9.944,9.967c5.48,0,9.939-4.471,9.939-9.967
					C45.826,24.198,41.367,19.726,35.887,19.726z"/>
				<path fill="#FFFFFF" d="M35.887,34.834c-2.827,0-5.127-2.305-5.127-5.139s2.3-5.139,5.127-5.139
					c2.826,0,5.124,2.305,5.124,5.139S38.713,34.834,35.887,34.834z M35.887,25.77c-2.16,0-3.917,1.761-3.917,3.925
					c0,2.164,1.757,3.926,3.917,3.926c2.158,0,3.914-1.761,3.914-3.926C39.802,27.531,38.045,25.77,35.887,25.77z"/>
			</g>
		</g>
		<path fill="#FFFFFF" d="M34.269,11.575c0-1.218-0.985-2.206-2.2-2.206c-0.626,0-1.192,0.263-1.592,0.684l-8.925,9.161
			c-0.396,0.372-0.947,0.652-1.525,0.652l-5.002-0.001l0,0c-1.214,0-2.197,0.986-2.199,2.203l-0.003,0.003v15.995l0.001,0.001
			c0.002,1.216,0.984,2.15,2.196,2.152l0.003-0.048h4.971c0.587,0,1.122,0.276,1.522,0.646c0.012,0.011,0.023,0.047,0.035,0.058
			l0.006,0.015l8.994,8.684c0.395,0.377,0.927,0.614,1.515,0.614c1.211,0,2.192-0.98,2.199-2.192l0.007-0.001v-18.3L34.269,11.575z
			 M22.172,37.875c0,0.335-0.216,0.606-0.55,0.606c-0.334,0-0.55-0.271-0.55-0.606V22.432c0-0.335,0.216-0.607,0.55-0.607
			c0.334,0,0.55,0.272,0.55,0.607V37.875z"/>
	</g>
	<g id="Humidity_icon">
	</g>
	<g id="CO2_Icon">
	</g>
</g>
<g id="Active_icons">
	<g id="Light_icon_copy">
	</g>
	<g id="Temperature_icon_copy">
	</g>
	<g id="Sound_icon_copy">
	</g>
	<g id="Humidity_icon_copy">
	</g>
	<g id="CO2_Icon_copy">
	</g>
</g>
<g id="Arrow">
</g>
<g id="More">
</g>
</svg>
