<?xml version="1.0" encoding="utf-8"?>
<!-- Generator: Adobe Illustrator 17.0.0, SVG Export Plug-In . SVG Version: 6.00 Build 0)  -->
<!DOCTYPE svg PUBLIC "-//W3C//DTD SVG 1.1//EN" "http://www.w3.org/Graphics/SVG/1.1/DTD/svg11.dtd">
<svg version="1.1" xmlns="http://www.w3.org/2000/svg" xmlns:xlink="http://www.w3.org/1999/xlink" x="0px" y="0px" width="64px"
	 height="64px" viewBox="0 0 64 64" enable-background="new 0 0 64 64" xml:space="preserve">
<g id="Layer_17">
</g>
<g id="White_icons">
	<g id="Temp_small">
		<path fill="#FFFFFF" d="M34.645,37.615l-0.246-0.095V29.7h-5.6v7.835l-0.057,0.096c-2.978,1.085-4.725,3.863-4.725,7.251
			c0,4.276,3.556,7.755,7.863,7.755c4.271,0,7.774-3.479,7.774-7.755C39.654,41.568,37.697,38.716,34.645,37.615z"/>
		<path fill="#FFFFFF" d="M37.598,35.346V14.628c0-3.036-2.572-5.498-5.6-5.498c-3.028,0-5.6,2.461-5.6,5.498V17.7h5.6v0.8h-5.6v1.6
			h2.4v0.8h-2.4v1.6h5.6v0.8h-5.6v12.046c-3.2,1.902-5.418,5.454-5.418,9.526c0,6.075,4.938,10.998,10.987,10.998
			S43,50.947,43,44.872C43,40.8,40.798,37.248,37.598,35.346z M31.931,53.436c-4.747,0-8.816-3.838-8.816-8.555
			c0-3.633,2.483-6.635,4.883-7.902V28.9h7.2v8.062c3.2,1.283,5.282,4.361,5.282,7.92C40.48,49.599,36.642,53.436,31.931,53.436z"/>
	</g>
</g>
<g id="Occupied">
</g>
<g id="Inactive_icons">
	<g id="Light_icon">
	</g>
	<g id="Temperature_icon">
	</g>
	<g id="Sound_icon">
	</g>
	<g id="Humidity_icon">
	</g>
	<g id="CO2_Icon">
	</g>
</g>
<g id="Active_icons">
	<g id="Light_icon_copy">
	</g>
	<g id="Temperature_icon_copy">
	</g>
	<g id="Sound_icon_copy">
	</g>
	<g id="Humidity_icon_copy">
	</g>
	<g id="CO2_Icon_copy">
	</g>
</g>
<g id="Arrow">
</g>
<g id="More">
</g>
</svg>
